# xmcd
#
# Track frame offsets: 
#        150
#        14328
#        25619
#        41451
#
# Disc length: 740 seconds
#
# Revision: 0
# Processed by: cddbd v1.5.2PL0 Copyright (c) Steve Scherf et al.
# Submitted via: ExactAudioCopy v1.1
#
DISCID=2102e204
DTITLE=Joanna Smith - Be What It Wants To Be
DYEAR=2012
DGENRE=Country
TTITLE0=We Can't Be Friends
TTITLE1=Poor 'Lil Heart
TTITLE2=What It Wants To Be
TTITLE3=Gettin' Married
EXTD=
EXTT0=
EXTT1=
EXTT2=
EXTT3=
PLAYORDER=
